<svg width="28" height="29" viewBox="0 0 28 29" fill="none" xmlns="http://www.w3.org/2000/svg">
<g id="twitter-fill 1" clip-path="url(#clip0_5140_79)">
<path id="Vector" d="M25.8557 7.11686C24.965 7.51084 24.0205 7.76958 23.0534 7.88453C24.0728 7.27487 24.8357 6.31538 25.2001 5.18486C24.2434 5.75419 23.1946 6.15319 22.1014 6.36903C21.3671 5.58337 20.3938 5.06232 19.3328 4.88688C18.2719 4.71144 17.1827 4.89143 16.2345 5.39889C15.2864 5.90635 14.5325 6.71283 14.09 7.69295C13.6475 8.67308 13.5413 9.77194 13.7877 10.8187C11.8477 10.7215 9.94978 10.2173 8.21723 9.33897C6.48468 8.46063 4.95621 7.22775 3.73106 5.72036C3.2974 6.46522 3.06951 7.31196 3.07073 8.17386C3.07073 9.86553 3.93173 11.36 5.24073 12.235C4.46607 12.2106 3.70847 12.0014 3.03106 11.6249V11.6855C3.0313 12.8122 3.42116 13.9041 4.13455 14.7761C4.84794 15.6481 5.84096 16.2466 6.94523 16.47C6.22611 16.6649 5.47209 16.6936 4.74023 16.554C5.05157 17.5238 5.6584 18.3719 6.47575 18.9797C7.2931 19.5874 8.28004 19.9243 9.29839 19.9432C8.28629 20.7381 7.12743 21.3257 5.88809 21.6724C4.64874 22.0191 3.35321 22.1182 2.07556 21.9639C4.30588 23.3982 6.90217 24.1597 9.55389 24.1572C18.5291 24.1572 23.4372 16.722 23.4372 10.2739C23.4372 10.0639 23.4314 9.85153 23.4221 9.64386C24.3774 8.95339 25.2019 8.09805 25.8569 7.11803L25.8557 7.11686Z" fill="black"/>
</g>
<defs>
<clipPath id="clip0_5140_79">
<rect width="28" height="28" fill="white" transform="translate(0 0.518188)"/>
</clipPath>
</defs>
</svg>
